<svg xmlns="http://www.w3.org/2000/svg" xmlns:svg="http://www.w3.org/2000/svg" xmlns:xlink="http://www.w3.org/1999/xlink" id="svg5" width="670.031" height="669.648" version="1.1" viewBox="0 0 177.279 177.178"><defs id="defs2"><linearGradient id="linearGradient4987"><stop style="stop-color:#457b9d;stop-opacity:1" id="stop4983" offset="0"/><stop style="stop-color:#457b9d;stop-opacity:0" id="stop4985" offset="1"/></linearGradient><linearGradient id="linearGradient4540"><stop style="stop-color:#f1faee;stop-opacity:1" id="stop4538" offset="0"/><stop style="stop-color:#457b9d;stop-opacity:1" id="stop4536" offset="1"/></linearGradient><linearGradient id="linearGradient4542" x1="116.479" x2="104.813" y1="158.991" y2="116.933" gradientUnits="userSpaceOnUse" xlink:href="#linearGradient4540"/><linearGradient id="linearGradient4989" x1="122.787" x2="101.354" y1="168.87" y2="93.812" gradientUnits="userSpaceOnUse" xlink:href="#linearGradient4987"/><linearGradient id="linearGradient5864" x1="122.787" x2="101.354" y1="168.87" y2="93.812" gradientUnits="userSpaceOnUse" xlink:href="#linearGradient4987"/><linearGradient id="linearGradient5866" x1="122.787" x2="101.354" y1="168.87" y2="93.812" gradientUnits="userSpaceOnUse" xlink:href="#linearGradient4987"/><linearGradient id="linearGradient5868" x1="116.479" x2="104.813" y1="158.991" y2="116.933" gradientUnits="userSpaceOnUse" xlink:href="#linearGradient4540"/><linearGradient id="linearGradient5870" x1="116.479" x2="104.813" y1="158.991" y2="116.933" gradientUnits="userSpaceOnUse" xlink:href="#linearGradient4540"/></defs><g id="layer1" transform="translate(-24.196996,-62.039592)"><path class="ghost-bg" style="display:none;fill:#e63946;fill-opacity:1;stroke:#e63946;stroke-width:.298979;stroke-linecap:round;stroke-opacity:1" id="ghost-bg" d="m 92.423219,64.549439 c -36.73501,10.57719 -58.073058,51.510361 -47.085986,86.628681 10.987072,35.11832 38.813875,61.19825 55.491517,87.4188 l 24.57751,-60.42174 52.85073,38.1278 c 0,0 7.81634,-71.22793 0.61813,-103.57447 -7.16614,-32.202429 -49.71686,-58.756107 -86.4519,-48.17903 z"/><path class="ghost-body" style="display:inline;fill:#e63946;fill-opacity:1;stroke:none;stroke-width:.298979;stroke-linecap:round;stroke-opacity:1" id="ghost-body" d="m 92.423219,64.549439 c -36.73501,10.57719 -58.073058,51.510361 -47.085986,86.628681 10.987072,35.11832 38.813875,61.19825 55.491517,87.4188 l 24.57751,-60.42174 52.85073,38.1278 c 0,0 7.81634,-71.22793 0.61813,-103.57447 -7.16614,-32.202429 -49.71686,-58.756107 -86.4519,-48.17903 z m -26.40159,53.160201 c 14.03161,-4.03995 28.681541,4.0597 32.721818,18.09121 4.040283,14.03172 -4.059352,28.68198 -18.09106,32.72232 -14.031917,4.04034 -28.682348,-4.05958 -32.72246,-18.09156 -4.04001,-14.0318 4.059909,-28.68191 18.091702,-32.72197 z M 143.44987,95.415697 c 14.03172,-4.040284 28.68198,4.059358 32.72231,18.091063 4.04034,14.03192 -4.05957,28.68235 -18.09155,32.72246 -14.03181,4.04001 -28.68192,-4.05991 -32.72197,-18.0917 -4.03995,-14.03161 4.05969,-28.681545 18.09121,-32.721823 z"/><g id="ghost-eyes" class="ghost-eyes" style="display:inline;fill:#457b9d;fill-opacity:1;stroke:url(#linearGradient4989);stroke-opacity:1"><path id="ghost-left-eye" d="m 66.021629,117.70964 c 14.03161,-4.03995 28.681541,4.0597 32.721818,18.09121 4.040283,14.03172 -4.059352,28.68198 -18.09106,32.72232 -14.031917,4.04034 -28.682348,-4.05958 -32.72246,-18.09156 -4.04001,-14.0318 4.059909,-28.68191 18.091702,-32.72197 z" class="ghost-left-eye"/><path id="ghost-right-eye" d="m 143.44987,95.415697 c 14.03172,-4.040284 28.68198,4.059358 32.72231,18.091063 4.04034,14.03192 -4.05957,28.68235 -18.09155,32.72246 -14.03181,4.04001 -28.68192,-4.05991 -32.72197,-18.0917 -4.03995,-14.03161 4.05969,-28.681545 18.09121,-32.721823 z" class="ghost-right-eye"/></g><g id="ghost-inner-eyes" class="ghost-inner-eyes" style="display:none;fill:url(#linearGradient4542);fill-opacity:1;stroke:none;stroke-opacity:1" transform="translate(2.6458334,7.4083337)"><path id="ghost-inner-right-eye" d="m 146.24401,105.1196 c 8.67241,-2.49712 17.7271,2.50892 20.22426,11.18131 2.49716,8.67253 -2.50905,17.72733 -11.18161,20.22435 -8.67246,2.49696 -17.72707,-2.50925 -20.22404,-11.1817 -2.49692,-8.67234 2.50911,-17.72684 11.18139,-20.22396 z" class="ghost-inner-right-eye"/><path id="ghost-inner-left-eyes" d="m 68.815627,127.41373 c 8.672267,-2.4969 17.72669,2.5091 20.223792,11.18131 2.497105,8.67233 -2.508892,17.72696 -11.18122,20.2241 -8.672457,2.49714 -17.727188,-2.50903 -20.224189,-11.18153 -2.496937,-8.67238 2.509236,-17.72691 11.181617,-20.22388 z" class="ghost-inner-left-eye"/></g></g></svg>